<?xml version="1.0" encoding="utf-8"?>
<!-- Generator: Adobe Illustrator 23.0.2, SVG Export Plug-In . SVG Version: 6.00 Build 0)  -->
<svg version="1.1" id="Layer_1" xmlns="http://www.w3.org/2000/svg" xmlns:xlink="http://www.w3.org/1999/xlink" x="0px" y="0px"
	 viewBox="0 0 72 72" style="enable-background:new 0 0 72 72;" xml:space="preserve">
<style type="text/css">
	.st0{display:none;}
	.st1{display:inline;}
	.st2{fill:#FDC108;}
	.st3{fill:#FFFFFF;}
	.st4{fill:none;stroke:#FFFFFF;stroke-width:2;stroke-linecap:round;stroke-linejoin:round;stroke-miterlimit:10;}
	.st5{fill:none;stroke:#FFC107;stroke-width:5;stroke-miterlimit:10;}
	.st6{fill:none;stroke:#FFC107;stroke-width:5;stroke-linecap:round;stroke-miterlimit:10;}
	.st7{fill:#FFFFFF;stroke:#FFC107;stroke-width:4;stroke-miterlimit:10;}
	.st8{fill:#FFC107;}
	.st9{fill:none;stroke:#FFC107;stroke-width:4;stroke-linecap:round;stroke-miterlimit:10;}
</style>
<g id="emoji" class="st0">
	<g class="st1">
		<g>
			<rect class="st2" width="72" height="72"/>
		</g>
		<g id="_xD83D__xDE10__xFE0F_">
			<path class="st3" d="M27.4,29.5c0,2.4-1.9,4.3-4.3,4.3s-4.3-1.9-4.3-4.3s1.9-4.3,4.3-4.3C25.5,25.1,27.4,27.2,27.4,29.5"/>
			<path class="st3" d="M53.3,29.5c0,2.4-1.9,4.3-4.3,4.3c-2.4,0-4.3-1.9-4.3-4.3s1.9-4.3,4.3-4.3C51.4,25.1,53.3,27.2,53.3,29.5"/>
			<line class="st4" x1="22.6" y1="46.9" x2="48.5" y2="46.9"/>
		</g>
	</g>
	<g id="A544aB.tif" class="st1">
		
			<image style="overflow:visible;enable-background:new    ;" width="440" height="393" id="Layer_0_1_" xlink:href="E16ED2E810118828.png"  transform="matrix(0.4031 0 0 0.4031 11.668 36.2898)">
		</image>
	</g>
</g>
<g class="st0">
	<g class="st1">
		<circle class="st5" cx="64.5" cy="1.9" r="39.3"/>
		<circle cx="54.3" cy="-7.2" r="6.1"/>
		<circle cx="75.9" cy="-7.2" r="6.1"/>
		<line class="st6" x1="51.4" y1="15.5" x2="78.9" y2="15.5"/>
	</g>
</g>
<g id="Layer_3">
	<g>
		<circle class="st7" cx="36" cy="36" r="33"/>
		<circle class="st8" cx="27.4" cy="28.4" r="5.1"/>
		<circle class="st8" cx="45.6" cy="28.4" r="5.1"/>
		<line class="st9" x1="25" y1="47.4" x2="48.1" y2="47.4"/>
	</g>
</g>
</svg>
