<?xml version="1.0" encoding="utf-8"?>
<!-- Generator: Adobe Illustrator 23.0.2, SVG Export Plug-In . SVG Version: 6.00 Build 0)  -->
<svg version="1.1" id="Layer_1" xmlns="http://www.w3.org/2000/svg" xmlns:xlink="http://www.w3.org/1999/xlink" x="0px" y="0px"
	 viewBox="0 0 383 220" style="enable-background:new 0 0 383 220;" xml:space="preserve">
<style type="text/css">
	.st0{opacity:0.3;}
	.st1{fill:#E7EFEE;}
	.st2{fill:#FFFFFF;}
</style>
<title>Asset 1</title>
<g>
	<g id="Layer_4">
		<g id="Group_1" class="st0">
			<path class="st1" d="M0,156.3V29.8c25.2-11.4,54.8-7.2,75.6,10.9c59.6-56.2,154-54,210.8,5c8.4,8.7,15.7,18.4,21.6,28.8l0,0
				c29.1-9.4,60.9,0.8,79,25.3v82.4"/>
		</g>
		<g id="Group_2">
			<path class="st2" d="M337.8,142.8c13.7-10.4,31.7-13.4,48.2-8V220H0V73.1c55.9-29.6,125.3-13.3,161.8,38l0,0
				c40.3-42.4,107.8-44.5,150.8-4.5C323.4,116.8,332,129.1,337.8,142.8L337.8,142.8z"/>
		</g>
	</g>
</g>
</svg>
