<svg xmlns="http://www.w3.org/2000/svg" width="273.65mm" height="113.53mm" viewBox="0 0 775.69 321.83">
  <defs>
    <style>
      .a {
        fill: #7ebd69;
      }

      .b {
        fill: #000;
      }
    </style>
  </defs>
  <title>iDi_logo_extended_white_green</title>
  <g>
    <g>
      <path class="a" d="M32.81,127.62c0-18.12,13.35-24.32,23.37-24.32,17.64,0,32.91,18.12,32.91,37.68,0,16.69-11.45,27.66-23.85,27.66C48.07,168.64,32.81,148.61,32.81,127.62Z" transform="translate(-32.81 -103.3)"/>
      <path class="a" d="M55.7,401.4c-3.34-27.19-14.31-142.61-14.31-156,0-23.37,2.38-42.92,20-42.92,14.31,0,27.67,12.87,27.67,31.48,0,31.95-1.43,122.57-1.43,150.72,0,24.32-4.77,32.91-16.22,32.91C61,417.62,57.13,412.85,55.7,401.4Z" transform="translate(-32.81 -103.3)"/>
      <path class="b" d="M109,202.51c1.61-16.55,14.36-21,23.51-20.14,16.13,1.58,28.46,19.5,26.71,37.37C157.75,235,146.31,244,135,242.88,119.3,241.35,107.14,221.69,109,202.51Z" transform="translate(-32.81 -103.3)"/>
      <path class="b" d="M110.87,399.66c-1.39-17.28-4.37-90.33-3.56-98.68,1.43-14.59,4.8-26.59,20.92-25,13.07,1.27,24.49,10.51,23.36,22.12-2,20-8.79,76.42-10.51,94-1.48,15.2-6.36,20.13-16.82,19.11C114.68,410.25,111.48,406.93,110.87,399.66Z" transform="translate(-32.81 -103.3)"/>
      <path class="b" d="M55.7,401.4c1.36,12.36,7.18,18.25,13.88,19.42l0,0c19.64,4,33.16,4.26,61.93,4.26,61.33,0,109.52-15.77,139.33-45.59,29.86-29.38,45.64-71.87,45.64-122.88,0-48.26-15.08-86.56-44.8-113.8-27.92-26-68.55-38.94-124-39.5v0H135.51a19.77,19.77,0,0,0-19.78,19.78h0a19.78,19.78,0,0,0,19.77,19.78h10.29c40.21,0,71.12,10.59,91.85,31.45,19.61,19.74,29.44,47.89,29.22,83.7,0,81.94-45.29,127.07-127.53,127.07-11.75,0-59-1-86-4.84Z" transform="translate(-32.81 -103.3)"/>
      <path class="a" d="M57.78,406.82" transform="translate(-32.81 -103.3)"/>
    </g>
    <g>
      <path class="b" d="M375.69,120.44a4.86,4.86,0,0,1,1.24-3.67,4.54,4.54,0,0,1,6.11,0,4.76,4.76,0,0,1,1.27,3.65,4.82,4.82,0,0,1-1.27,3.67,4.24,4.24,0,0,1-3,1.21,4.18,4.18,0,0,1-3.07-1.21A4.93,4.93,0,0,1,375.69,120.44Zm7.92,61.26h-7.3V133.5h7.3Z" transform="translate(-32.81 -103.3)"/>
      <path class="b" d="M432.07,181.7V150.52q0-5.9-2.68-8.8t-8.4-2.9q-7.56,0-11.08,4.09t-3.52,13.5V181.7h-7.3V133.5H405l1.18,6.6h.35a14.92,14.92,0,0,1,6.29-5.52,20.4,20.4,0,0,1,9-2q8.7,0,13.1,4.2t4.4,13.44V181.7Z" transform="translate(-32.81 -103.3)"/>
      <path class="b" d="M473.63,182.58q-10.47,0-16.21-6.45t-5.73-18.22q0-12.09,5.82-18.69t16.6-6.6a32.86,32.86,0,0,1,6.95.75,22.62,22.62,0,0,1,5.45,1.76l-2.24,6.2a35.24,35.24,0,0,0-5.28-1.61,23.77,23.77,0,0,0-5.05-.63q-14.7,0-14.69,18.73,0,8.88,3.58,13.63t10.62,4.75a32.45,32.45,0,0,0,12.36-2.59v6.46A26.35,26.35,0,0,1,473.63,182.58Z" transform="translate(-32.81 -103.3)"/>
      <path class="b" d="M504.54,181.7h-7.3V113.27h7.3Z" transform="translate(-32.81 -103.3)"/>
      <path class="b" d="M526.88,133.5v31.27q0,5.89,2.69,8.79t8.39,2.91q7.57,0,11.06-4.14c2.34-2.75,3.5-7.26,3.5-13.5V133.5h7.3v48.2h-6l-1.06-6.47h-.4a14.51,14.51,0,0,1-6.22,5.46,20.91,20.91,0,0,1-9.08,1.89q-8.79,0-13.17-4.18T519.5,165V133.5Z" transform="translate(-32.81 -103.3)"/>
      <path class="b" d="M606.39,168.55a12.07,12.07,0,0,1-5,10.38q-5,3.65-14.07,3.65-9.6,0-15-3v-6.77a36.06,36.06,0,0,0,7.46,2.77,30.82,30.82,0,0,0,7.67,1q5.71,0,8.8-1.82a6.28,6.28,0,0,0,.64-10.38q-2.45-2-9.53-4.73a52.09,52.09,0,0,1-9.56-4.37,13,13,0,0,1-4.22-4.25,11,11,0,0,1-1.39-5.67A10.8,10.8,0,0,1,577,136q4.79-3.41,13.14-3.41a38.49,38.49,0,0,1,15.22,3.17l-2.6,5.93a35,35,0,0,0-13.14-3c-3.46,0-6.07.55-7.83,1.63a5,5,0,0,0-2.64,4.49,5.47,5.47,0,0,0,1,3.3,9.83,9.83,0,0,0,3.19,2.59,70.5,70.5,0,0,0,8.44,3.56q8.58,3.12,11.59,6.29A11.07,11.07,0,0,1,606.39,168.55Z" transform="translate(-32.81 -103.3)"/>
      <path class="b" d="M617.65,120.44a4.85,4.85,0,0,1,1.23-3.67,4.54,4.54,0,0,1,6.11,0,4.76,4.76,0,0,1,1.28,3.65,4.83,4.83,0,0,1-1.28,3.67,4.46,4.46,0,0,1-6.11,0A4.93,4.93,0,0,1,617.65,120.44Zm7.91,61.26h-7.3V133.5h7.3Z" transform="translate(-32.81 -103.3)"/>
      <path class="b" d="M651.6,181.7l-18.3-48.2h7.83l10.38,28.58q3.51,10,4.13,13H656q.5-2.32,3.06-9.65t11.54-31.95h7.83l-18.29,48.2Z" transform="translate(-32.81 -103.3)"/>
      <path class="b" d="M706.52,182.58q-10.68,0-16.86-6.51T683.48,158q0-11.66,5.74-18.52t15.41-6.86q9.06,0,14.34,6t5.27,15.72v4.62H691q.23,8.49,4.29,12.88t11.46,4.4A38.82,38.82,0,0,0,722.18,173v6.51a38.62,38.62,0,0,1-7.32,2.39A40.76,40.76,0,0,1,706.52,182.58Zm-2-43.85a11.88,11.88,0,0,0-9.25,3.79q-3.46,3.78-4.07,10.46h25.2q0-6.9-3.08-10.57T704.54,138.73Z" transform="translate(-32.81 -103.3)"/>
      <path class="b" d="M409.12,283.31h-.4q-5.06,7.33-15.13,7.34-9.45,0-14.71-6.46t-5.25-18.39q0-11.91,5.28-18.51t14.68-6.6q9.81,0,15,7.13h.57l-.3-3.47-.18-3.39V221.35H416v68.42h-5.94Zm-14.6,1.23q7.47,0,10.84-4.07t3.36-13.13V265.8q0-10.24-3.41-14.62t-10.88-4.37a11.17,11.17,0,0,0-9.83,5q-3.41,5-3.41,14.09t3.39,13.94Q388,284.54,394.52,284.54Z" transform="translate(-32.81 -103.3)"/>
      <path class="b" d="M451.86,290.65q-10.68,0-16.86-6.51t-6.18-18.07q0-11.65,5.74-18.51T450,240.69q9.06,0,14.34,6t5.27,15.73V267h-33.2q.22,8.49,4.29,12.89t11.45,4.4a38.89,38.89,0,0,0,15.4-3.26v6.51a39.27,39.27,0,0,1-7.33,2.4A41.44,41.44,0,0,1,451.86,290.65Zm-2-43.84a11.94,11.94,0,0,0-9.26,3.78q-3.45,3.78-4.06,10.47h25.2q0-6.92-3.08-10.58T449.88,246.81Z" transform="translate(-32.81 -103.3)"/>
      <path class="b" d="M513.12,276.62a12.05,12.05,0,0,1-5,10.38q-5,3.64-14.07,3.65-9.58,0-14.95-3v-6.78a35.62,35.62,0,0,0,7.45,2.77,31,31,0,0,0,7.68,1q5.71,0,8.79-1.83a6.28,6.28,0,0,0,.64-10.38q-2.44-2-9.52-4.72a52,52,0,0,1-9.56-4.38,13.13,13.13,0,0,1-4.23-4.24A11.14,11.14,0,0,1,479,253.4a10.84,10.84,0,0,1,4.79-9.3q4.8-3.4,13.15-3.41a38.53,38.53,0,0,1,15.22,3.17l-2.6,5.94a34.81,34.81,0,0,0-13.15-3q-5.19,0-7.82,1.62a5,5,0,0,0-2.64,4.49,5.47,5.47,0,0,0,1,3.3,9.76,9.76,0,0,0,3.18,2.59,72.15,72.15,0,0,0,8.45,3.57q8.58,3.12,11.59,6.28A11.15,11.15,0,0,1,513.12,276.62Z" transform="translate(-32.81 -103.3)"/>
      <path class="b" d="M524.37,228.51a4.86,4.86,0,0,1,1.24-3.67,4.57,4.57,0,0,1,6.11,0,4.77,4.77,0,0,1,1.27,3.65,4.85,4.85,0,0,1-1.27,3.68,4.28,4.28,0,0,1-3,1.2,4.22,4.22,0,0,1-3.07-1.2A5,5,0,0,1,524.37,228.51Zm7.92,61.26H525V241.58h7.3Z" transform="translate(-32.81 -103.3)"/>
      <path class="b" d="M587.22,241.58v4.61l-8.93,1.06a15.58,15.58,0,0,1,3.16,9.63,14.25,14.25,0,0,1-4.83,11.3q-4.85,4.23-13.28,4.22a22.54,22.54,0,0,1-4.05-.35q-4.66,2.46-4.66,6.2a3.12,3.12,0,0,0,1.63,2.92c1.08.64,2.94.95,5.58.95h8.53q7.83,0,12,3.3t4.2,9.58a13.69,13.69,0,0,1-6.42,12.21q-6.42,4.2-18.73,4.2-9.47,0-14.58-3.52a11.36,11.36,0,0,1-5.13-9.94,11.16,11.16,0,0,1,2.82-7.61,14.31,14.31,0,0,1,7.91-4.35,7.56,7.56,0,0,1-3.09-2.6,6.81,6.81,0,0,1-1.26-4.08,7.76,7.76,0,0,1,1.41-4.62,14.82,14.82,0,0,1,4.44-3.83,13,13,0,0,1-6.09-5.23,15.36,15.36,0,0,1-2.35-8.44q0-7.92,4.75-12.21c3.16-2.85,7.65-4.29,13.45-4.29a24.34,24.34,0,0,1,6.82.89Zm-38.44,56.28a6.55,6.55,0,0,0,3.3,5.94q3.3,2,9.45,2,9.19,0,13.61-2.75a8.4,8.4,0,0,0,4.42-7.45c0-2.61-.8-4.42-2.42-5.43s-4.64-1.52-9.1-1.52h-8.75q-5,0-7.74,2.38A8.46,8.46,0,0,0,548.78,297.86Zm4-40.85q0,5.06,2.86,7.65c1.9,1.73,4.56,2.6,8,2.6q10.68,0,10.68-10.38,0-10.86-10.81-10.86-5.14,0-7.92,2.77C553.66,250.63,552.74,253.38,552.74,257Z" transform="translate(-32.81 -103.3)"/>
      <path class="b" d="M630.09,289.77V258.59c0-3.92-.89-6.86-2.68-8.79s-4.59-2.9-8.4-2.9q-7.56,0-11.08,4.08t-3.52,13.51v25.28h-7.3V241.58h5.94l1.18,6.59h.36a14.93,14.93,0,0,1,6.29-5.52,20.46,20.46,0,0,1,9-2q8.7,0,13.1,4.21t4.4,13.43v31.44Z" transform="translate(-32.81 -103.3)"/>
      <path class="b" d="M673,273.1A17.26,17.26,0,0,1,676.07,263q3.06-4.39,11-8.88a54.51,54.51,0,0,1-5.08-6.33,22.17,22.17,0,0,1-2.13-4.49,14.88,14.88,0,0,1-.79-4.84c0-4.39,1.43-7.83,4.31-10.29s6.87-3.69,12-3.69q7.13,0,11.22,3.67t4.09,10.23a14.17,14.17,0,0,1-3,8.68q-3,4-9.9,8.07l17.9,17.19a21.41,21.41,0,0,0,3.94-6.39,54.91,54.91,0,0,0,2.48-8h7.39q-3,12.57-9,19.09l13.15,12.79H723.54l-8.13-7.83a31.2,31.2,0,0,1-22.52,8.71q-9.45,0-14.66-4.66T673,273.1Zm20.06,11q10.59,0,17.59-6.77l-19.22-18.65a42.31,42.31,0,0,0-6.9,4.95,12.87,12.87,0,0,0-3,4.2,12.64,12.64,0,0,0-1,5.1,10.32,10.32,0,0,0,3.41,8.16A13.25,13.25,0,0,0,693.07,284.1Zm-6.82-45.82a11.46,11.46,0,0,0,1.58,5.78,35.37,35.37,0,0,0,5.41,6.62q5.67-3.3,7.9-6.09a10.06,10.06,0,0,0,2.22-6.45,7.23,7.23,0,0,0-2.27-5.51,8.41,8.41,0,0,0-6-2.14,9.42,9.42,0,0,0-6.36,2.11A7.12,7.12,0,0,0,686.25,238.28Z" transform="translate(-32.81 -103.3)"/>
      <path class="b" d="M375.69,336.59a4.84,4.84,0,0,1,1.24-3.67,4.54,4.54,0,0,1,6.11,0,4.76,4.76,0,0,1,1.27,3.65,4.84,4.84,0,0,1-1.27,3.67,4.24,4.24,0,0,1-3,1.21,4.18,4.18,0,0,1-3.07-1.21A5,5,0,0,1,375.69,336.59Zm7.92,61.26h-7.3v-48.2h7.3Z" transform="translate(-32.81 -103.3)"/>
      <path class="b" d="M432.07,397.85V366.67q0-5.9-2.68-8.8T421,355q-7.56,0-11.08,4.09t-3.52,13.5v25.29h-7.3v-48.2H405l1.18,6.59h.35a15,15,0,0,1,6.29-5.51,20.4,20.4,0,0,1,9-2q8.7,0,13.1,4.2t4.4,13.43v31.45Z" transform="translate(-32.81 -103.3)"/>
      <path class="b" d="M487.35,397.85V366.67c0-3.93-.9-6.86-2.68-8.8s-4.59-2.9-8.4-2.9q-7.57,0-11.08,4.09t-3.52,13.5v25.29h-7.3v-48.2h5.93l1.19,6.59h.35a14.9,14.9,0,0,1,6.29-5.51,20.37,20.37,0,0,1,9-2q8.7,0,13.1,4.2t4.4,13.43v31.45Z" transform="translate(-32.81 -103.3)"/>
      <path class="b" d="M551.25,373.7q0,11.79-5.94,18.41t-16.4,6.61a21.75,21.75,0,0,1-11.48-3,20,20,0,0,1-7.74-8.71A30.31,30.31,0,0,1,507,373.7q0-11.77,5.9-18.36t16.35-6.57q10.13,0,16.08,6.73T551.25,373.7Zm-36.72,0q0,9.24,3.69,14.08t10.86,4.83q7.17,0,10.89-4.81t3.71-14.1q0-9.18-3.71-14T529,355q-7.15,0-10.81,4.71T514.53,373.7Z" transform="translate(-32.81 -103.3)"/>
      <path class="b" d="M574.6,397.85l-18.3-48.2h7.83l10.38,28.58q3.51,10,4.13,13H579q.5-2.33,3.06-9.65t11.54-32h7.83l-18.29,48.2Z" transform="translate(-32.81 -103.3)"/>
      <path class="b" d="M638.8,397.85,637.35,391H637a20.3,20.3,0,0,1-7.19,6.13,22,22,0,0,1-8.95,1.6q-7.17,0-11.24-3.69t-4.07-10.51q0-14.59,23.36-15.3l8.18-.27v-3q0-5.67-2.45-8.37t-7.8-2.71q-6,0-13.63,3.7L611,353a34.27,34.27,0,0,1,7.81-3,33.46,33.46,0,0,1,8.51-1.1q8.61,0,12.77,3.82T644.21,365v32.9Zm-16.49-5.15q6.81,0,10.71-3.74t3.89-10.46v-4.36l-7.3.31q-8.72.32-12.56,2.7a8.17,8.17,0,0,0-3.84,7.46,7.49,7.49,0,0,0,2.39,6A10,10,0,0,0,622.31,392.7Z" transform="translate(-32.81 -103.3)"/>
      <path class="b" d="M674.81,392.7a23.92,23.92,0,0,0,3.74-.29,22.83,22.83,0,0,0,2.86-.59v5.58a13,13,0,0,1-3.49,1,26.19,26.19,0,0,1-4.16.37q-14,0-14-14.73V355.32h-6.91V351.8l6.91-3,3.07-10.29h4.23v11.17h14v5.67h-14v28.37c0,2.9.68,5.12,2.06,6.68A7.21,7.21,0,0,0,674.81,392.7Z" transform="translate(-32.81 -103.3)"/>
      <path class="b" d="M690.43,336.59a4.84,4.84,0,0,1,1.23-3.67,4.54,4.54,0,0,1,6.11,0,4.76,4.76,0,0,1,1.28,3.65,4.84,4.84,0,0,1-1.28,3.67,4.46,4.46,0,0,1-6.11,0A5,5,0,0,1,690.43,336.59Zm7.91,61.26H691v-48.2h7.3Z" transform="translate(-32.81 -103.3)"/>
      <path class="b" d="M755.42,373.7q0,11.79-5.93,18.41t-16.41,6.61a21.78,21.78,0,0,1-11.48-3,19.92,19.92,0,0,1-7.73-8.71,30.31,30.31,0,0,1-2.73-13.28q0-11.77,5.89-18.36t16.36-6.57q10.11,0,16.07,6.73T755.42,373.7Zm-36.72,0q0,9.24,3.7,14.08t10.86,4.83q7.17,0,10.88-4.81t3.72-14.1q0-9.18-3.72-14t-11-4.77q-7.17,0-10.82,4.71T718.7,373.7Z" transform="translate(-32.81 -103.3)"/>
      <path class="b" d="M801.2,397.85V366.67q0-5.9-2.68-8.8t-8.4-2.9q-7.57,0-11.08,4.09t-3.52,13.5v25.29h-7.3v-48.2h5.94l1.18,6.59h.35a14.9,14.9,0,0,1,6.29-5.51,20.37,20.37,0,0,1,9-2q8.7,0,13.1,4.2t4.4,13.43v31.45Z" transform="translate(-32.81 -103.3)"/>
    </g>
  </g>
</svg>
